<?xml version="1.0" encoding="UTF-8"?>
<svg width="14px" height="11px" viewBox="0 0 14 11" version="1.1" xmlns="http://www.w3.org/2000/svg" xmlns:xlink="http://www.w3.org/1999/xlink">
    <!-- Generator: Sketch 54.1 (76490) - https://sketchapp.com -->
    <title>UXRtv</title>
    <desc>Created with Sketch.</desc>
    <g id="Page-1" stroke="none" stroke-width="1" fill="none" fill-rule="evenodd">
        <g id="tv" fill="#191919" fill-rule="nonzero">
            <path d="M12.9294667,0.325875 L1.07053333,0.325875 C0.608533333,0.325875 0.230533333,0.697125 0.230533333,1.150875 L0.230533333,8.24633333 C0.230533333,8.70008333 0.608533333,9.07133333 1.07053333,9.07133333 L6.53333333,9.07133333 L6.53333333,10.0287917 L4.31153333,10.0287917 C4.05380045,10.0287917 3.84486667,10.2339945 3.84486667,10.487125 C3.84486667,10.7402555 4.05380045,10.9454583 4.31153333,10.9454583 L9.68893333,10.9454583 C9.94666622,10.9454583 10.1556,10.7402555 10.1556,10.487125 C10.1556,10.2339945 9.94666622,10.0287917 9.68893333,10.0287917 L7.46666667,10.0287917 L7.46666667,9.07133333 L12.9294667,9.07133333 C13.3914667,9.07133333 13.7694667,8.70008333 13.7694667,8.24633333 L13.7694667,1.150875 C13.7694667,0.697125 13.3914667,0.325875 12.9294667,0.325875 Z M12.8361333,7.82466667 C12.8361333,8.00616667 12.6849333,8.15466667 12.5001333,8.15466667 L1.49986667,8.15466667 C1.31451179,8.15416308 1.16437941,8.00671163 1.16386667,7.82466667 L1.16386667,1.57254167 C1.16386667,1.39104167 1.31506667,1.24254167 1.49986667,1.24254167 L12.4996667,1.24254167 C12.6844667,1.24254167 12.8356667,1.39104167 12.8356667,1.57254167 L12.8356667,7.82466667 L12.8361333,7.82466667 Z" id="Shape"></path>
        </g>
    </g>
</svg>