<?xml version="1.0" encoding="utf-8"?>
<!-- Generator: Adobe Illustrator 24.0.2, SVG Export Plug-In . SVG Version: 6.00 Build 0)  -->
<svg version="1.2" baseProfile="tiny" id="Ñëîé_1"
	 xmlns="http://www.w3.org/2000/svg" xmlns:xlink="http://www.w3.org/1999/xlink" x="0px" y="0px" viewBox="0 0 4000 2480"
	 xml:space="preserve">
<g>
	<radialGradient id="SVGID_1_" cx="2000" cy="1240" r="1792.0803" gradientUnits="userSpaceOnUse">
		<stop  offset="0" style="stop-color:#47CFFF"/>
		<stop  offset="0.1578" style="stop-color:#36A9D6"/>
		<stop  offset="0.3454" style="stop-color:#2583AB"/>
		<stop  offset="0.5281" style="stop-color:#17658A"/>
		<stop  offset="0.702" style="stop-color:#0E4F72"/>
		<stop  offset="0.8633" style="stop-color:#084264"/>
		<stop  offset="1" style="stop-color:#063E5F"/>
	</radialGradient>
	<rect fill="url(#SVGID_1_)" width="4000" height="2480"/>
	<g>
		<polygon fill="#0A3339" points="0,0 0,0 0,211.06 		"/>
		<polygon fill="#08405B" points="0,1486.24 0,2075.46 0,1679.72 		"/>
		<polygon fill="#002F4D" points="0,2075.46 0,2480 0,2277.73 		"/>
		<polygon fill="#003350" points="0,1679.72 0,2075.46 35.56,1873.19 		"/>
		<polygon fill="#002E52" points="0,2277.73 0,2480 115.56,2480 		"/>
		<polygon fill="#0D455E" points="0,1248.79 0,1486.24 133.33,1547.8 		"/>
		<polygon fill="#00273B" points="0,1486.24 0,1679.72 133.33,1547.8 		"/>
		<polygon fill="#01282F" points="0,211.06 0,562.84 195.56,175.89 		"/>
		<polygon fill="#032A2F" points="0,0 0,211.06 195.56,175.89 		"/>
		<polygon fill="#002834" points="0,782.7 0,1002.55 240,844.26 		"/>
		<polygon fill="#082D3D" points="0,562.84 0,782.7 240,844.26 		"/>
		<polygon fill="#002E48" points="0,1679.72 35.56,1873.19 248.89,1864.4 		"/>
		<polygon fill="#003047" points="133.33,1547.8 0,1679.72 248.89,1864.4 		"/>
		<polygon fill="#144C65" points="35.56,1873.19 0,2075.46 248.89,1864.4 		"/>
		<polygon fill="#0C466C" points="0,2277.73 115.56,2480 257.78,2207.38 		"/>
		<polygon fill="#002B48" points="0,2075.46 0,2277.73 257.78,2207.38 		"/>
		<polygon fill="#04395B" points="248.89,1864.4 0,2075.46 257.78,2207.38 		"/>
		<polygon fill="#0E4A6F" points="257.78,2207.38 115.56,2480 284.44,2480 		"/>
		<polygon fill="#012C33" points="0,0 195.56,175.89 373.33,0 		"/>
		<polygon fill="#0F4A72" points="257.78,2207.38 284.44,2480 373.33,2480 		"/>
		<polygon fill="#013857" points="248.89,1864.4 257.78,2207.38 382.22,2145.82 		"/>
		<polygon fill="#155581" points="257.78,2207.38 373.33,2480 382.22,2145.82 		"/>
		<polygon fill="#104A62" points="0,1248.79 133.33,1547.8 417.78,1196.03 		"/>
		<polygon fill="#013243" points="0,1002.55 0,1248.79 417.78,1196.03 		"/>
		<polygon fill="#053D4E" points="240,844.26 0,1002.55 417.78,1196.03 		"/>
		<polygon fill="#194A58" points="373.33,0 195.56,175.89 444.44,448.51 		"/>
		<polygon fill="#0A3A46" points="195.56,175.89 0,562.84 444.44,448.51 		"/>
		<polygon fill="#043039" points="0,562.84 240,844.26 444.44,448.51 		"/>
		<polygon fill="#0B4865" points="133.33,1547.8 248.89,1864.4 453.33,1574.18 		"/>
		<polygon fill="#063F5A" points="417.78,1196.03 133.33,1547.8 453.33,1574.18 		"/>
		<polygon fill="#024160" points="248.89,1864.4 382.22,2145.82 560,1996.31 		"/>
		<polygon fill="#014260" points="453.33,1574.18 248.89,1864.4 577.78,1635.74 		"/>
		<polygon fill="#0A4E71" points="248.89,1864.4 560,1996.31 577.78,1635.74 		"/>
		<polygon fill="#014069" points="382.22,2145.82 373.33,2480 657.78,2400.85 		"/>
		<polygon fill="#0C4D75" points="560,1996.31 382.22,2145.82 657.78,2400.85 		"/>
		<polygon fill="#004370" points="657.78,2400.85 373.33,2480 675.56,2480 		"/>
		<polygon fill="#002730" points="373.33,0 444.44,448.51 684.44,0 		"/>
		<polygon fill="#043B42" points="684.44,0 444.44,448.51 764.44,413.33 		"/>
		<polygon fill="#03455B" points="240,844.26 417.78,1196.03 808.89,940.99 		"/>
		<polygon fill="#0D5770" points="417.78,1196.03 773.33,1099.29 808.89,940.99 		"/>
		<polygon fill="#125162" points="764.44,413.33 444.44,448.51 808.89,940.99 		"/>
		<polygon fill="#003744" points="444.44,448.51 240,844.26 808.89,940.99 		"/>
		<polygon fill="#024862" points="773.33,1099.29 417.78,1196.03 808.89,1407.09 		"/>
		<polygon fill="#00425C" points="417.78,1196.03 453.33,1574.18 808.89,1407.09 		"/>
		<polygon fill="#125C7F" points="453.33,1574.18 577.78,1635.74 808.89,1407.09 		"/>
		<polygon fill="#034D70" points="577.78,1635.74 560,1996.31 862.22,1785.25 		"/>
		<polygon fill="#115C83" points="808.89,1407.09 577.78,1635.74 862.22,1785.25 		"/>
		<polygon fill="#023D45" points="684.44,0 764.44,413.33 880,0 		"/>
		<polygon fill="#055673" points="773.33,1099.29 808.89,1407.09 888.89,1354.33 		"/>
		<polygon fill="#065260" points="764.44,413.33 808.89,940.99 986.67,598.01 		"/>
		<polygon fill="#0A4E7D" points="657.78,2400.85 675.56,2480 995.56,2356.88 		"/>
		<polygon fill="#034C75" points="560,1996.31 657.78,2400.85 995.56,2356.88 		"/>
		<polygon fill="#08596A" points="986.67,598.01 808.89,940.99 1013.33,765.11 		"/>
		<polygon fill="#0A5889" points="995.56,2356.88 675.56,2480 1040,2480 		"/>
		<polygon fill="#18749D" points="808.89,1407.09 862.22,1785.25 1120,1521.42 		"/>
		<polygon fill="#056689" points="888.89,1354.33 808.89,1407.09 1120,1521.42 		"/>
		<polygon fill="#156596" points="862.22,1785.25 560,1996.31 1146.67,2049.08 		"/>
		<polygon fill="#055786" points="560,1996.31 995.56,2356.88 1146.67,2049.08 		"/>
		<polygon fill="#034953" points="764.44,413.33 986.67,598.01 1173.33,272.62 		"/>
		<polygon fill="#014248" points="880,0 764.44,413.33 1173.33,272.62 		"/>
		<polygon fill="#0A4D55" points="1102.22,0 880,0 1173.33,272.62 		"/>
		<polygon fill="#004276" points="995.56,2356.88 1040,2480 1191.11,2374.47 		"/>
		<polygon fill="#106A9F" points="1146.67,2049.08 995.56,2356.88 1191.11,2374.47 		"/>
		<polygon fill="#0D6781" points="808.89,940.99 773.33,1099.29 1200,1011.35 		"/>
		<polygon fill="#0C607A" points="1013.33,765.11 808.89,940.99 1200,1011.35 		"/>
		<polygon fill="#1B8EBB" points="773.33,1099.29 888.89,1354.33 1208.89,1055.32 		"/>
		<polygon fill="#157696" points="1200,1011.35 773.33,1099.29 1208.89,1055.32 		"/>
		<polygon fill="#046590" points="1120,1521.42 862.22,1785.25 1253.33,1582.98 		"/>
		<polygon fill="#005F8C" points="862.22,1785.25 1146.67,2049.08 1253.33,1582.98 		"/>
		<polygon fill="#209BD7" points="1120,1521.42 1253.33,1582.98 1271.11,1389.5 		"/>
		<polygon fill="#086E96" points="888.89,1354.33 1120,1521.42 1271.11,1389.5 		"/>
		<polygon fill="#26AADA" points="1208.89,1055.32 888.89,1354.33 1271.11,1389.5 		"/>
		<polygon fill="#095054" points="1102.22,0 1173.33,272.62 1288.89,0 		"/>
		<polygon fill="#035F74" points="1013.33,765.11 1200,1011.35 1306.67,633.19 		"/>
		<polygon fill="#025867" points="986.67,598.01 1013.33,765.11 1306.67,633.19 		"/>
		<polygon fill="#02515E" points="1173.33,272.62 986.67,598.01 1306.67,633.19 		"/>
		<polygon fill="#075056" points="1288.89,0 1173.33,272.62 1324.44,0 		"/>
		<polygon fill="#0A609B" points="1191.11,2374.47 1040,2480 1342.22,2480 		"/>
		<polygon fill="#1D7694" points="1208.89,1055.32 1271.11,1389.5 1351.11,1187.23 		"/>
		<polygon fill="#0D6978" points="1173.33,272.62 1306.67,633.19 1377.78,641.99 		"/>
		<polygon fill="#005E92" points="1146.67,2049.08 1191.11,2374.47 1413.33,2005.11 		"/>
		<polygon fill="#2488C4" points="1191.11,2374.47 1342.22,2480 1413.33,2005.11 		"/>
		<polygon fill="#1B87A3" points="1306.67,633.19 1200,1011.35 1431.11,984.96 		"/>
		<polygon fill="#097389" points="1377.78,641.99 1306.67,633.19 1431.11,984.96 		"/>
		<polygon fill="#1284A6" points="1200,1011.35 1208.89,1055.32 1431.11,984.96 		"/>
		<polygon fill="#1EA7EB" points="1208.89,1055.32 1351.11,1187.23 1431.11,984.96 		"/>
		<polygon fill="#127DB5" points="1253.33,1582.98 1146.67,2049.08 1466.67,1829.22 		"/>
		<polygon fill="#1483BA" points="1146.67,2049.08 1413.33,2005.11 1466.67,1829.22 		"/>
		<polygon fill="#1488C1" points="1466.67,1829.22 1413.33,2005.11 1520,1873.19 		"/>
		<polygon fill="#158CC4" points="1466.67,1829.22 1520,1873.19 1555.56,1864.4 		"/>
		<polygon fill="#158CC4" points="1520,1873.19 1413.33,2005.11 1555.56,1864.4 		"/>
		<polygon fill="#0B81A5" points="1431.11,984.96 1351.11,1187.23 1564.44,1169.65 		"/>
		<polygon fill="#1B7180" points="1173.33,272.62 1377.78,641.99 1600,334.18 		"/>
		<polygon fill="#206D77" points="1324.44,0 1173.33,272.62 1600,334.18 		"/>
		<polygon fill="#1B6973" points="1555.56,0 1324.44,0 1600,334.18 		"/>
		<polygon fill="#1B8EBB" points="1351.11,1187.23 1271.11,1389.5 1600,1380.71 		"/>
		<polygon fill="#4BB8F0" points="1564.44,1169.65 1351.11,1187.23 1600,1380.71 		"/>
		<polygon fill="#0F88B7" points="1271.11,1389.5 1253.33,1582.98 1600,1380.71 		"/>
		<polygon fill="#0E85BD" points="1253.33,1582.98 1466.67,1829.22 1635.56,1600.57 		"/>
		<polygon fill="#1894C8" points="1600,1380.71 1253.33,1582.98 1635.56,1600.57 		"/>
		<polygon fill="#0E85BD" points="1466.67,1829.22 1555.56,1864.4 1635.56,1600.57 		"/>
		<polygon fill="#0F79B3" points="1413.33,2005.11 1342.22,2480 1653.33,2268.94 		"/>
		<polygon fill="#0C7FB8" points="1555.56,1864.4 1413.33,2005.11 1653.33,2268.94 		"/>
		<polygon fill="#176F79" points="1555.56,0 1600,334.18 1680,0 		"/>
		<polygon fill="#00659F" points="1653.33,2268.94 1342.22,2480 1688.89,2480 		"/>
		<polygon fill="#0A8CC8" points="1600,1380.71 1635.56,1600.57 1795.56,1547.8 		"/>
		<polygon fill="#188FC7" points="1555.56,1864.4 1653.33,2268.94 1813.33,2233.76 		"/>
		<polygon fill="#016AA4" points="1653.33,2268.94 1688.89,2480 1822.22,2339.29 		"/>
		<polygon fill="#0472AF" points="1813.33,2233.76 1653.33,2268.94 1822.22,2339.29 		"/>
		<polygon fill="#4BB8F0" points="1377.78,641.99 1431.11,984.96 1840,809.08 		"/>
		<polygon fill="#006D82" points="1600,334.18 1377.78,641.99 1840,809.08 		"/>
		<polygon fill="#26AADA" points="1431.11,984.96 1564.44,1169.65 1866.67,1037.73 		"/>
		<polygon fill="#0E8DB0" points="1840,809.08 1431.11,984.96 1866.67,1037.73 		"/>
		<polygon fill="#0E85BD" points="1564.44,1169.65 1600,1380.71 1866.67,1037.73 		"/>
		<polygon fill="#209BD7" points="1555.56,1864.4 1813.33,2233.76 1884.44,1829.22 		"/>
		<polygon fill="#0F8BC7" points="1635.56,1600.57 1555.56,1864.4 1884.44,1829.22 		"/>
		<polygon fill="#1296D4" points="1635.56,1600.57 1884.44,1829.22 1884.44,1688.51 		"/>
		<polygon fill="#4BB8F0" points="1795.56,1547.8 1635.56,1600.57 1884.44,1688.51 		"/>
		<polygon fill="#199FDE" points="1884.44,1618.16 1795.56,1547.8 1884.44,1688.51 		"/>
		<polygon fill="#1B859B" points="1600,334.18 1840,809.08 1937.78,316.6 		"/>
		<polygon fill="#0E6777" points="1680,0 1600,334.18 1937.78,316.6 		"/>
		<polygon fill="#126E7B" points="1911.11,0 1680,0 1937.78,316.6 		"/>
		<polygon fill="#1FA4CD" points="1840,809.08 1866.67,1037.73 1937.78,870.64 		"/>
		<polygon fill="#117EC1" points="1822.22,2339.29 1688.89,2480 1982.22,2480 		"/>
		<polygon fill="#0A95D0" points="1795.56,1547.8 1884.44,1618.16 2000,1319.15 		"/>
		<polygon fill="#4BB8F0" points="1600,1380.71 1795.56,1547.8 2000,1319.15 		"/>
		<polygon fill="#1EA7EB" points="1866.67,1037.73 1600,1380.71 2000,1319.15 		"/>
		<polygon fill="#107CBD" points="1813.33,2233.76 1822.22,2339.29 2008.89,2427.23 		"/>
		<polygon fill="#0F7BBC" points="1822.22,2339.29 1982.22,2480 2008.89,2427.23 		"/>
		<polygon fill="#0E86C5" points="1884.44,1829.22 1813.33,2233.76 2026.67,1899.57 		"/>
		<polygon fill="#0D92CD" points="1884.44,1688.51 1884.44,1829.22 2026.67,1899.57 		"/>
		<polygon fill="#1499C2" points="1937.78,870.64 1866.67,1037.73 2053.33,1046.52 		"/>
		<polygon fill="#1197CA" points="1866.67,1037.73 2000,1319.15 2053.33,1046.52 		"/>
		<polygon fill="#0A7D98" points="1937.78,316.6 1840,809.08 2080,641.99 		"/>
		<polygon fill="#0D8AAA" points="1840,809.08 1937.78,870.64 2080,641.99 		"/>
		<polygon fill="#4BB8F0" points="2000,1319.15 1884.44,1618.16 2115.56,1635.74 		"/>
		<polygon fill="#1298D5" points="1884.44,1618.16 1884.44,1688.51 2115.56,1635.74 		"/>
		<polygon fill="#1297D2" points="1884.44,1688.51 2026.67,1899.57 2115.56,1635.74 		"/>
		<polygon fill="#025E6D" points="1911.11,0 1937.78,316.6 2186.67,175.89 		"/>
		<polygon fill="#086779" points="2186.67,175.89 1937.78,316.6 2222.22,290.21 		"/>
		<polygon fill="#147C95" points="1937.78,316.6 2080,641.99 2222.22,290.21 		"/>
		<polygon fill="#0D7C9A" points="2080,641.99 2195.56,615.6 2222.22,290.21 		"/>
		<polygon fill="#0C94D2" points="2000,1319.15 2115.56,1635.74 2240,1582.98 		"/>
		<polygon fill="#47CFFF" points="2053.33,1046.52 2000,1319.15 2257.78,1327.94 		"/>
		<polygon fill="#1EA7EB" points="2000,1319.15 2240,1582.98 2257.78,1327.94 		"/>
		<polygon fill="#0E6578" points="1911.11,0 2186.67,175.89 2266.67,0 		"/>
		<polygon fill="#0789C5" points="2115.56,1635.74 2026.67,1899.57 2284.44,1961.13 		"/>
		<polygon fill="#0A7DBC" points="2284.44,1961.13 2026.67,1899.57 2293.33,2330.5 		"/>
		<polygon fill="#1889CB" points="1813.33,2233.76 2008.89,2427.23 2293.33,2330.5 		"/>
		<polygon fill="#0070AC" points="2026.67,1899.57 1813.33,2233.76 2293.33,2330.5 		"/>
		<polygon fill="#22A5DB" points="2053.33,1046.52 2257.78,1327.94 2311.11,958.58 		"/>
		<polygon fill="#148CB1" points="2195.56,615.6 2080,641.99 2311.11,958.58 		"/>
		<polygon fill="#1EA7EB" points="1937.78,870.64 2053.33,1046.52 2311.11,958.58 		"/>
		<polygon fill="#0C88AE" points="2080,641.99 1937.78,870.64 2311.11,958.58 		"/>
		<polygon fill="#0E78B6" points="2008.89,2427.23 1982.22,2480 2320,2480 		"/>
		<polygon fill="#1581C2" points="2293.33,2330.5 2008.89,2427.23 2320,2480 		"/>
		<polygon fill="#1683A0" points="2222.22,290.21 2195.56,615.6 2337.78,589.22 		"/>
		<polygon fill="#1599D9" points="2240,1582.98 2115.56,1635.74 2373.33,1855.6 		"/>
		<polygon fill="#0C8AC4" points="2115.56,1635.74 2284.44,1961.13 2373.33,1855.6 		"/>
		<polygon fill="#1497CB" points="2311.11,958.58 2257.78,1327.94 2382.22,932.2 		"/>
		<polygon fill="#1696D3" points="2195.56,615.6 2311.11,958.58 2382.22,932.2 		"/>
		<polygon fill="#1696D3" points="2337.78,589.22 2195.56,615.6 2382.22,932.2 		"/>
		<polygon fill="#0676B5" points="2284.44,1961.13 2293.33,2330.5 2417.78,1996.31 		"/>
		<polygon fill="#138BCA" points="2373.33,1855.6 2284.44,1961.13 2417.78,1996.31 		"/>
		<polygon fill="#0D6A7C" points="2186.67,175.89 2222.22,290.21 2435.56,0 		"/>
		<polygon fill="#0D6676" points="2266.67,0 2186.67,175.89 2435.56,0 		"/>
		<polygon fill="#197B96" points="2222.22,290.21 2337.78,589.22 2444.44,483.69 		"/>
		<polygon fill="#117DBD" points="2293.33,2330.5 2320,2480 2453.33,2268.94 		"/>
		<polygon fill="#1584C9" points="2417.78,1996.31 2293.33,2330.5 2453.33,2268.94 		"/>
		<polygon fill="#4BB8F0" points="2257.78,1327.94 2240,1582.98 2506.67,1424.68 		"/>
		<polygon fill="#118BCA" points="2373.33,1855.6 2417.78,1996.31 2506.67,1978.72 		"/>
		<polygon fill="#1383C3" points="2417.78,1996.31 2453.33,2268.94 2506.67,1978.72 		"/>
		<polygon fill="#128FC9" points="2240,1582.98 2373.33,1855.6 2551.11,1618.16 		"/>
		<polygon fill="#1696D3" points="2506.67,1424.68 2240,1582.98 2551.11,1618.16 		"/>
		<polygon fill="#1992BD" points="2337.78,589.22 2382.22,932.2 2595.56,958.58 		"/>
		<polygon fill="#1585AB" points="2444.44,483.69 2337.78,589.22 2595.56,958.58 		"/>
		<polygon fill="#0870AD" points="2453.33,2268.94 2320,2480 2604.44,2480 		"/>
		<polygon fill="#0C6279" points="2435.56,0 2222.22,290.21 2613.33,149.5 		"/>
		<polygon fill="#1A7995" points="2222.22,290.21 2444.44,483.69 2613.33,149.5 		"/>
		<polygon fill="#0D7FBD" points="2373.33,1855.6 2506.67,1978.72 2640,1802.84 		"/>
		<polygon fill="#0C89C3" points="2551.11,1618.16 2373.33,1855.6 2640,1802.84 		"/>
		<polygon fill="#0477B0" points="2640,1802.84 2506.67,1978.72 2675.56,1829.22 		"/>
		<polygon fill="#0E8CC9" points="2257.78,1327.94 2506.67,1424.68 2711.11,1196.03 		"/>
		<polygon fill="#4BB8F0" points="2382.22,932.2 2257.78,1327.94 2711.11,1196.03 		"/>
		<polygon fill="#34B6E8" points="2595.56,958.58 2382.22,932.2 2711.11,1196.03 		"/>
		<polygon fill="#186C86" points="2435.56,0 2613.33,149.5 2755.56,0 		"/>
		<polygon fill="#198CC2" points="2595.56,958.58 2711.11,1196.03 2755.56,923.4 		"/>
		<polygon fill="#06627B" points="2613.33,149.5 2444.44,483.69 2826.67,606.81 		"/>
		<polygon fill="#187FA8" points="2444.44,483.69 2595.56,958.58 2826.67,606.81 		"/>
		<polygon fill="#117CAA" points="2595.56,958.58 2755.56,923.4 2826.67,606.81 		"/>
		<polygon fill="#08566D" points="2755.56,0 2613.33,149.5 2871.11,0 		"/>
		<polygon fill="#07576E" points="2613.33,149.5 2826.67,606.81 2871.11,0 		"/>
		<polygon fill="#0E74B2" points="2675.56,1829.22 2506.67,1978.72 2906.67,2260.14 		"/>
		<polygon fill="#056BAD" points="2506.67,1978.72 2453.33,2268.94 2906.67,2260.14 		"/>
		<polygon fill="#0567A4" points="2453.33,2268.94 2604.44,2480 2906.67,2260.14 		"/>
		<polygon fill="#0A6BAF" points="2906.67,2260.14 2604.44,2480 2915.56,2480 		"/>
		<polygon fill="#0D6299" points="2604.44,2480 2320,2480 2915.56,2480 		"/>
		<polygon fill="#067FB6" points="2506.67,1424.68 2551.11,1618.16 2951.11,1556.6 		"/>
		<polygon fill="#0675AA" points="2711.11,1196.03 2506.67,1424.68 2951.11,1556.6 		"/>
		<polygon fill="#0F83BC" points="2551.11,1618.16 2640,1802.84 2951.11,1556.6 		"/>
		<polygon fill="#0F81BD" points="2640,1802.84 2675.56,1829.22 2951.11,1556.6 		"/>
		<polygon fill="#1381B6" points="2755.56,923.4 2711.11,1196.03 2960,1204.82 		"/>
		<polygon fill="#328FBB" points="2711.11,1196.03 2951.11,1556.6 2960,1204.82 		"/>
		<polygon fill="#086AAB" points="2675.56,1829.22 2906.67,2260.14 3075.56,2075.46 		"/>
		<polygon fill="#127CB0" points="2960,1204.82 2951.11,1556.6 3111.11,1521.42 		"/>
		<polygon fill="#05628B" points="2826.67,606.81 2755.56,923.4 3128.89,712.34 		"/>
		<polygon fill="#0E719B" points="2755.56,923.4 2960,1204.82 3128.89,712.34 		"/>
		<polygon fill="#005B96" points="3111.11,1521.42 2951.11,1556.6 3137.78,1706.1 		"/>
		<polygon fill="#0B71AF" points="2951.11,1556.6 2675.56,1829.22 3137.78,1706.1 		"/>
		<polygon fill="#0662A1" points="2675.56,1829.22 3075.56,2075.46 3137.78,1706.1 		"/>
		<polygon fill="#135D76" points="2755.56,0 2871.11,0 3191.11,0 		"/>
		<polygon fill="#0D67A6" points="3137.78,1706.1 3075.56,2075.46 3191.11,1838.01 		"/>
		<polygon fill="#075EA5" points="2906.67,2260.14 2915.56,2480 3235.56,2480 		"/>
		<polygon fill="#004A6A" points="2826.67,606.81 3128.89,712.34 3235.56,334.18 		"/>
		<polygon fill="#21708F" points="2871.11,0 2826.67,606.81 3235.56,334.18 		"/>
		<polygon fill="#034963" points="3191.11,0 2871.11,0 3235.56,334.18 		"/>
		<polygon fill="#005595" points="3075.56,2075.46 2906.67,2260.14 3235.56,2145.82 		"/>
		<polygon fill="#237BC2" points="2906.67,2260.14 3235.56,2480 3235.56,2145.82 		"/>
		<polygon fill="#004D8D" points="3191.11,1838.01 3075.56,2075.46 3235.56,2145.82 		"/>
		<polygon fill="#005784" points="3128.89,712.34 2960,1204.82 3306.67,949.79 		"/>
		<polygon fill="#2C7BC0" points="3235.56,2145.82 3235.56,2480 3324.44,2251.35 		"/>
		<polygon fill="#1171A4" points="2960,1204.82 3111.11,1521.42 3395.56,1090.5 		"/>
		<polygon fill="#065D8A" points="3306.67,949.79 2960,1204.82 3395.56,1090.5 		"/>
		<polygon fill="#095273" points="3235.56,334.18 3128.89,712.34 3404.44,510.07 		"/>
		<polygon fill="#013D57" points="3191.11,0 3235.56,334.18 3440,0 		"/>
		<polygon fill="#045999" points="3137.78,1706.1 3191.11,1838.01 3475.56,1530.21 		"/>
		<polygon fill="#005892" points="3111.11,1521.42 3137.78,1706.1 3475.56,1530.21 		"/>
		<polygon fill="#0E5E99" points="3395.56,1090.5 3111.11,1521.42 3475.56,1530.21 		"/>
		<polygon fill="#024C73" points="3128.89,712.34 3306.67,949.79 3502.22,685.96 		"/>
		<polygon fill="#085076" points="3404.44,510.07 3128.89,712.34 3502.22,685.96 		"/>
		<polygon fill="#09509E" points="3324.44,2251.35 3235.56,2480 3555.56,2480 		"/>
		<polygon fill="#0F5CA0" points="3475.56,1530.21 3191.11,1838.01 3582.22,1925.96 		"/>
		<polygon fill="#004E8D" points="3191.11,1838.01 3235.56,2145.82 3582.22,1925.96 		"/>
		<polygon fill="#0D579E" points="3235.56,2145.82 3324.44,2251.35 3582.22,1925.96 		"/>
		<polygon fill="#054C80" points="3395.56,1090.5 3475.56,1530.21 3626.67,1178.44 		"/>
		<polygon fill="#0D4D70" points="3404.44,510.07 3502.22,685.96 3635.56,554.04 		"/>
		<polygon fill="#01304A" points="3404.44,510.07 3635.56,554.04 3635.56,246.24 		"/>
		<polygon fill="#064661" points="3235.56,334.18 3404.44,510.07 3635.56,246.24 		"/>
		<polygon fill="#084562" points="3440,0 3235.56,334.18 3635.56,246.24 		"/>
		<polygon fill="#07456C" points="3635.56,554.04 3502.22,685.96 3644.44,923.4 		"/>
		<polygon fill="#0B5280" points="3395.56,1090.5 3626.67,1178.44 3644.44,923.4 		"/>
		<polygon fill="#024771" points="3306.67,949.79 3395.56,1090.5 3644.44,923.4 		"/>
		<polygon fill="#003F68" points="3502.22,685.96 3306.67,949.79 3644.44,923.4 		"/>
		<polygon fill="#09508E" points="3475.56,1530.21 3582.22,1925.96 3733.33,1486.24 		"/>
		<polygon fill="#003F74" points="3626.67,1178.44 3475.56,1530.21 3733.33,1486.24 		"/>
		<polygon fill="#003781" points="3324.44,2251.35 3555.56,2480 3777.78,2128.23 		"/>
		<polygon fill="#084E96" points="3582.22,1925.96 3324.44,2251.35 3777.78,2128.23 		"/>
		<polygon fill="#064594" points="3777.78,2128.23 3555.56,2480 3822.22,2480 		"/>
		<polygon fill="#023A55" points="3440,0 3635.56,246.24 3831.11,0 		"/>
		<polygon fill="#014076" points="3626.67,1178.44 3733.33,1486.24 3973.33,1196.03 		"/>
		<polygon fill="#0C5194" points="3733.33,1486.24 3582.22,1925.96 3973.33,1855.6 		"/>
		<polygon fill="#0D4D95" points="3582.22,1925.96 3777.78,2128.23 3973.33,1855.6 		"/>
		<polygon fill="#013C64" points="3635.56,554.04 3644.44,923.4 4000,773.9 		"/>
		<polygon fill="#033860" points="3635.56,554.04 4000,773.9 4000,641.99 		"/>
		<polygon fill="#06417B" points="3973.33,1196.03 3733.33,1486.24 4000,1363.12 		"/>
		<polygon fill="#0C4A95" points="3973.33,1855.6 3777.78,2128.23 4000,1978.72 		"/>
		<polygon fill="#013A87" points="3777.78,2128.23 4000,2128.23 4000,1978.72 		"/>
		<polygon fill="#0C3F5C" points="4000,0 3831.11,0 4000,202.27 		"/>
		<polygon fill="#01334E" points="3831.11,0 3635.56,246.24 4000,202.27 		"/>
		<polygon fill="#094166" points="3635.56,554.04 4000,641.99 4000,395.74 		"/>
		<polygon fill="#063E5F" points="3635.56,246.24 3635.56,554.04 4000,395.74 		"/>
		<polygon fill="#012E4B" points="4000,202.27 3635.56,246.24 4000,395.74 		"/>
		<polygon fill="#235A93" points="3973.33,1196.03 4000,1363.12 4000,1020.14 		"/>
		<polygon fill="#00234B" points="4000,641.99 4000,773.9 4000,1020.14 		"/>
		<polygon fill="#013C66" points="4000,773.9 3644.44,923.4 4000,1020.14 		"/>
		<polygon fill="#024270" points="3644.44,923.4 3626.67,1178.44 4000,1020.14 		"/>
		<polygon fill="#013668" points="3626.67,1178.44 3973.33,1196.03 4000,1020.14 		"/>
		<polygon fill="#012E72" points="3973.33,1855.6 4000,1978.72 4000,1582.98 		"/>
		<polygon fill="#003B7D" points="3733.33,1486.24 3973.33,1855.6 4000,1582.98 		"/>
		<polygon fill="#00326B" points="4000,1363.12 3733.33,1486.24 4000,1582.98 		"/>
		<polygon fill="#002F7B" points="4000,1978.72 4000,2128.23 4000,2348.09 		"/>
		<polygon fill="#003386" points="3822.22,2480 4000,2480 4000,2348.09 		"/>
		<polygon fill="#003B89" points="3777.78,2128.23 3822.22,2480 4000,2348.09 		"/>
		<polygon fill="#003885" points="4000,2128.23 3777.78,2128.23 4000,2348.09 		"/>
	</g>
</g>
</svg>
