<?xml version="1.0" encoding="utf-8"?>
<!-- Generator: Adobe Illustrator 24.2.3, SVG Export Plug-In . SVG Version: 6.00 Build 0)  -->
<svg version="1.1" id="Lager_1" xmlns="http://www.w3.org/2000/svg" xmlns:xlink="http://www.w3.org/1999/xlink" x="0px" y="0px"
	 viewBox="0 0 175.3 27.5" style="enable-background:new 0 0 175.3 27.5;" xml:space="preserve">
<style type="text/css">
	.st0{fill:#FFFFFF;}
</style>
<g>
	<path class="st0" d="M20.9,24.7l-6.3-10.3l-1.9-4l-0.1,0.1l0.1,0.3c0.3,1.4,0.4,2.2,0.4,3.6v10.3H7.6v-22H14l7.4,12.2l0.1-0.1
		L21,8.7v-6h5.5v21.9L20.9,24.7L20.9,24.7z"/>
	<polygon class="st0" points="44.8,24.7 28.3,24.7 28.3,2.7 44.8,2.7 44.8,7.8 34.8,7.8 34.8,11 42.9,11 42.9,15.9 34.8,15.9 
		34.8,19.5 44.8,19.5 	"/>
	<polygon class="st0" points="57.7,24.7 51.2,24.7 51.2,8 46.7,8 46.7,2.7 62.2,2.7 62.2,8 57.7,8 	"/>
	<path class="st0" d="M72.2,17.6c-0.6,2.9-3.1,5.5-6.2,5.5c-1.8,0-3.4-0.8-3-2.8c0.7-3.4,4.7-3.7,7.3-3.7h2.1L72.2,17.6L72.2,17.6z
		 M70.6,14.6c-2,0-4.4,0.1-6.4,0.9s-3.5,2.6-3.9,4.5c-0.7,3.3,1.6,5,4.7,5c2.6,0,4.7-1,6.3-3.4L71,24.7h2.5c-0.1-1,0.1-2.3,0.3-3.4
		L75,15c0.4-1.8,0.7-3.9-0.3-5.3C73.8,8.2,71.9,8,70.1,8c-3,0-6.8,1-7.9,4.4l2.3,0.4c0.9-2.3,3-2.9,5-2.9c2.9,0,3.9,1.1,3.4,3.9
		l-0.1,0.7L70.6,14.6L70.6,14.6z"/>
	<path class="st0" d="M83,24.8L80.6,25c-3.6,0-4.2-2.1-3.6-5.3l1.8-9.4h-2.9l0.4-2h2.9l0.8-4L82.5,4l-0.9,4.3h3.6l-0.4,2h-3.6
		l-1.9,9.8c-0.4,1.9,0,2.9,2,2.9l2-0.1L83,24.8L83,24.8z"/>
	<path class="st0" d="M97.5,7.4c3,0,3.3,4.3,3.3,6.4s-0.2,6.2-3.3,6.2s-3.3-4.1-3.3-6.2C94.1,11.7,94.5,7.4,97.5,7.4L97.5,7.4z
		 M97.5,2.4C90.8,2.4,87,7.2,87,13.8C87,20,90.8,25,97.5,25c6.6,0,10.5-5,10.5-11.2C108,7.2,104.1,2.4,97.5,2.4L97.5,2.4z"/>
	<path class="st0" d="M123.1,24.7l-6.3-10.3l-2-3.9l-0.1,0.1l0.1,0.3c0.3,1.4,0.4,2.2,0.4,3.6v10.3h-5.5V2.7h6.3l7.4,12.2l0.1-0.1
		L123,8.7v-6h5.5v21.9L123.1,24.7L123.1,24.7z"/>
	<path class="st0" d="M149.3,16.7c-0.4,5-4.1,8.3-9.2,8.3c-6.6,0-10.1-4.7-10.1-11s3.1-11.6,10-11.6c5.6,0,8.8,3.4,9.3,8.8l-6.3,0.3
		c0.1-1.8-0.7-4.2-2.9-4.2c-3,0-3.1,4.6-3.1,6.6c0,2.2,0.1,6,3.1,6c2.1,0,2.9-1.8,3-3.6L149.3,16.7L149.3,16.7z"/>
	<polygon class="st0" points="167.7,24.7 151.2,24.7 151.2,2.7 167.7,2.7 167.7,7.8 157.8,7.8 157.8,11 165.8,11 165.8,15.9 
		157.8,15.9 157.8,19.5 167.7,19.5 	"/>
</g>
</svg>
