<svg xmlns="http://www.w3.org/2000/svg" viewBox="0 0 36 36">
    <path d="M20.459 27.553a2.46 2.46 0 0 1-2.457 2.456 2.461 2.461 0 0 1-2.46-2.456 2.461 2.461 0 0 1 2.46-2.458 2.46 2.46 0 0 1 2.457 2.458zm11.904-16.244a22.358 22.358 0 0 0-10.107-4.906c-6.629-1.307-13.417.525-18.627 5.026a1.462 1.462 0 1 0 1.911 2.212c4.525-3.909 10.411-5.501 16.148-4.37a19.434 19.434 0 0 1 8.78 4.264 1.462 1.462 0 0 0 1.895-2.226zm-3.762 4.792a16.754 16.754 0 0 0-7.417-3.489c-4.825-.957-9.846.284-13.773 3.406a1.462 1.462 0 0 0 1.819 2.289c3.253-2.586 7.403-3.616 11.388-2.826a13.878 13.878 0 0 1 6.138 2.889 1.458 1.458 0 0 0 2.056-.212 1.46 1.46 0 0 0-.211-2.057zm-3.681 4.824a11.011 11.011 0 0 0-4.824-2.245c-3.165-.625-6.449.191-9.011 2.237a1.462 1.462 0 0 0 1.824 2.285c1.889-1.508 4.303-2.11 6.62-1.654a8.118 8.118 0 0 1 3.556 1.653 1.46 1.46 0 0 0 2.056-.22 1.463 1.463 0 0 0-.221-2.056z" fill="#191919"/>
</svg>
