<?xml version="1.0" encoding="utf-8"?>
<!-- Generator: Adobe Illustrator 18.1.1, SVG Export Plug-In . SVG Version: 6.00 Build 0)  -->
<svg version="1.1" id="Lager_1" xmlns="http://www.w3.org/2000/svg" xmlns:xlink="http://www.w3.org/1999/xlink" x="0px" y="0px"
	 viewBox="0 0 220 34" enable-background="new 0 0 220 34" xml:space="preserve">
<g>
	<path fill="#2D509F" d="M18.3,32.5L9.6,18.4l-2.7-5.5L6.9,13l0.1,0.4c0.4,1.9,0.6,3,0.6,5.1v14.1H0V2.3h8.8l10.1,16.8l0.1-0.1
		l-0.7-8.4V2.3h7.5v30.2L18.3,32.5"/>
	<polyline fill="#2D509F" points="51,32.5 28.4,32.5 28.4,2.3 51,2.3 51,9.3 37.4,9.3 37.4,13.7 48.4,13.7 48.4,20.4 37.4,20.4 
		37.4,25.3 51,25.3 51,32.5 	"/>
	<polyline fill="#2D509F" points="68.8,32.5 60,32.5 60,9.6 53.6,9.6 53.6,2.3 75,2.3 75,9.6 68.8,9.6 68.8,32.5 	"/>
	<path fill="#2D509F" d="M88.7,22.7c-0.8,4-4.3,7.6-8.6,7.6c-2.5,0-4.6-1.1-4.1-3.9c0.9-4.6,6.5-5.1,10.1-5.1H89L88.7,22.7
		L88.7,22.7z M86.6,18.7c-2.8,0-6.1,0.1-8.8,1.3c-2.7,1.1-4.8,3.5-5.3,6.2c-0.9,4.4,2.3,6.8,6.5,6.8c3.6,0,6.5-1.4,8.7-4.6l-0.4,4.2
		h3.4c-0.2-1.5,0.1-3.1,0.4-4.7l1.7-8.7c0.5-2.6,1-5.4-0.4-7.3c-1.3-1.9-4-2.2-6.4-2.2c-4.1,0-9.3,1.5-10.8,6.1l3.1,0.5
		c1.2-3.1,4.1-4,6.9-4c4,0,5.4,1.5,4.6,5.4l-0.2,1L86.6,18.7"/>
	<g>
		<defs>
			<rect id="SVGID_1_" x="-6.6" y="2" width="448.7" height="685.3"/>
		</defs>
		<clipPath id="SVGID_2_">
			<use xlink:href="#SVGID_1_"  overflow="visible"/>
		</clipPath>
		<path clip-path="url(#SVGID_2_)" fill="#2D509F" d="M103.6,32.7l-3.4,0.3c-4.9,0-5.8-2.9-4.9-7.3l2.5-12.9h-4l0.5-2.7h4l1.1-5.5
			l3.5-0.4l-1.1,5.9h5l-0.5,2.7h-5l-2.6,13.5c-0.5,2.6,0,4,2.8,4l2.7-0.2L103.6,32.7"/>
		<path clip-path="url(#SVGID_2_)" fill="#2D509F" d="M123.4,8.7c4.1,0,4.5,5.9,4.5,8.8c0,2.9-0.3,8.5-4.5,8.5
			c-4.2,0-4.5-5.6-4.5-8.5C118.9,14.6,119.3,8.7,123.4,8.7L123.4,8.7z M123.4,1.9c-9.2,0-14.4,6.6-14.4,15.6
			c0,8.6,5.3,15.4,14.4,15.4s14.4-6.9,14.4-15.4C137.9,8.5,132.6,1.9,123.4,1.9"/>
		<path clip-path="url(#SVGID_2_)" fill="#2D509F" d="M158.6,32.5L150,18.4l-2.7-5.5l-0.1,0.1l0.1,0.4c0.4,1.9,0.6,3,0.6,5.1v14.1
			h-7.5V2.3h8.8l10.1,16.8l0.1-0.1l-0.7-8.4V2.3h7.5v30.2L158.6,32.5"/>
		<path clip-path="url(#SVGID_2_)" fill="#2D509F" d="M194.7,21.5c-0.6,7-5.6,11.4-12.6,11.4c-9.1,0-13.8-6.6-13.8-15.1
			c0-8.7,4.2-15.9,13.7-15.9c7.7,0,12.1,4.6,12.7,12.1l-8.6,0.4c0.1-2.6-0.9-5.8-4-5.8c-4.1,0-4.3,6.3-4.3,9.2c0,3,0.2,8.2,4.4,8.2
			c2.9,0,4-2.5,4.1-5L194.7,21.5"/>
	</g>
	<polyline fill="#2D509F" points="220,32.5 197.3,32.5 197.3,2.3 220,2.3 220,9.3 206.4,9.3 206.4,13.7 217.4,13.7 217.4,20.4 
		206.4,20.4 206.4,25.3 220,25.3 220,32.5 	"/>
</g>
</svg>
