<?xml version="1.0" encoding="utf-8"?>
<!-- Generator: Adobe Illustrator 22.0.1, SVG Export Plug-In . SVG Version: 6.00 Build 0)  -->
<svg version="1.1" id="Lager_1" xmlns="http://www.w3.org/2000/svg" xmlns:xlink="http://www.w3.org/1999/xlink" x="0px" y="0px"
	 viewBox="0 0 220 31" style="enable-background:new 0 0 220 31;" xml:space="preserve">
<style type="text/css">
	.st0{fill:#164194;}
</style>
<g>
	<path class="st0" d="M18.7,30.6l-8.7-14.1L7.4,11l-0.1,0.1l0.1,0.4c0.4,1.9,0.6,3,0.6,5v14.1H0.5V0.4h8.7l10.1,16.8l0.1-0.1
		l-0.7-8.3V0.4h7.5v30.1H18.7L18.7,30.6z"/>
	<polygon class="st0" points="51.4,30.6 28.8,30.6 28.8,0.4 51.4,0.4 51.4,7.4 37.8,7.4 37.8,11.8 48.8,11.8 48.8,18.5 37.8,18.5 
		37.8,23.4 51.4,23.4 51.4,30.6 	"/>
	<polygon class="st0" points="69.1,30.6 60.3,30.6 60.3,7.7 54,7.7 54,0.4 75.3,0.4 75.3,7.7 69.1,7.7 69.1,30.6 	"/>
	<path class="st0" d="M89,20.8c-0.8,4-4.3,7.6-8.5,7.6c-2.5,0-4.6-1.1-4.1-3.9c0.9-4.6,6.5-5.1,10-5.1h2.9L89,20.8L89,20.8z
		 M86.9,16.7c-2.8,0-6.1,0.1-8.8,1.3c-2.7,1.1-4.8,3.5-5.3,6.2C71.9,28.7,75,31,79.2,31c3.6,0,6.5-1.4,8.7-4.6l-0.4,4.2h3.4
		c-0.2-1.4,0.1-3.1,0.4-4.7l1.7-8.7c0.5-2.5,1-5.4-0.4-7.3c-1.3-1.9-4-2.2-6.4-2.2c-4.1,0-9.3,1.4-10.8,6.1l3.1,0.5
		c1.2-3.1,4.1-4,6.9-4c4,0,5.4,1.5,4.6,5.4l-0.2,1H86.9L86.9,16.7z"/>
	<path class="st0" d="M103.8,30.7l-3.3,0.3c-4.9,0-5.8-2.9-4.9-7.3l2.5-12.9h-4l0.5-2.7h4l1.1-5.5l3.5-0.4L102,8.1h5l-0.5,2.7h-5
		l-2.6,13.5c-0.5,2.6,0,4,2.8,4l2.7-0.2L103.8,30.7L103.8,30.7z"/>
	<path class="st0" d="M123.7,6.8c4.1,0,4.5,5.9,4.5,8.8c0,2.9-0.3,8.5-4.5,8.5c-4.2,0-4.5-5.6-4.5-8.5
		C119.1,12.7,119.6,6.8,123.7,6.8L123.7,6.8z M123.7,0c-9.2,0-14.4,6.6-14.4,15.6c0,8.6,5.3,15.4,14.4,15.4
		c9.1,0,14.4-6.9,14.4-15.4C138.1,6.6,132.8,0,123.7,0L123.7,0z"/>
	<path class="st0" d="M158.8,30.6l-8.6-14.1l-2.7-5.4l-0.1,0.1l0.1,0.4c0.4,1.9,0.6,3,0.6,5v14.1h-7.5V0.4h8.7l10.1,16.8l0.1-0.1
		l-0.7-8.3V0.4h7.5v30.1H158.8L158.8,30.6z"/>
	<path class="st0" d="M194.8,19.6c-0.6,6.9-5.6,11.4-12.6,11.4c-9,0-13.8-6.5-13.8-15.1c0-8.7,4.2-15.9,13.7-15.9
		c7.7,0,12.1,4.6,12.7,12.1l-8.6,0.4c0.1-2.5-0.9-5.8-4-5.8c-4.1,0-4.3,6.3-4.3,9.1c0,3,0.2,8.2,4.3,8.2c2.9,0,4-2.5,4.1-5
		L194.8,19.6L194.8,19.6z"/>
	<polygon class="st0" points="220,30.6 197.4,30.6 197.4,0.4 220,0.4 220,7.4 206.4,7.4 206.4,11.8 217.4,11.8 217.4,18.5 
		206.4,18.5 206.4,23.4 220,23.4 220,30.6 	"/>
</g>
</svg>
